<svg width="24" height="24" viewBox="0 0 24 24" fill="none" xmlns="http://www.w3.org/2000/svg">
<path fill-rule="evenodd" clip-rule="evenodd" d="M2.99995 3.79739C2.42319 3.79739 1.79995 4.35539 1.79995 5.24739V18.7474C1.79995 19.6394 2.42319 20.1974 2.99995 20.1974H21C21.5767 20.1974 22.2 19.6394 22.2 18.7474V15.8474H17C14.8737 15.8474 13.15 14.1237 13.15 11.9974C13.15 9.8711 14.8737 8.14739 17 8.14739H22.2V5.24739C22.2 4.35539 21.5767 3.79739 21 3.79739H2.99995ZM23.7999 8.14739V5.24739C23.7999 3.6541 22.6323 2.19739 21 2.19739H2.99995C1.36758 2.19739 0.199951 3.6541 0.199951 5.24739V18.7474C0.199951 20.3407 1.36758 21.7974 2.99995 21.7974H21C22.6323 21.7974 23.7999 20.3407 23.7999 18.7474V15.8474H23.85V8.14739H23.7999ZM16 11.9474C16 11.4779 16.3806 11.0974 16.85 11.0974H18.15C18.6194 11.0974 19 11.4779 19 11.9474C19 12.4168 18.6194 12.7974 18.15 12.7974H16.85C16.3806 12.7974 16 12.4168 16 11.9474ZM14.85 11.9974C14.85 10.81 15.8126 9.84739 17 9.84739H22.15V14.1474H17C15.8126 14.1474 14.85 13.1848 14.85 11.9974Z" fill="white"/>
</svg>
